<?xml version="1.0" encoding="UTF-8" standalone="no"?>
<!-- Created with Inkscape (http://www.inkscape.org/) -->

<svg
   width="10.093308mm"
   height="10.09903mm"
   viewBox="0 0 10.093308 10.099031"
   version="1.1"
   id="svg5"
   sodipodi:docname="copy_left.svg"
   inkscape:version="1.1.2 (b8e25be833, 2022-02-05)"
   xmlns:inkscape="http://www.inkscape.org/namespaces/inkscape"
   xmlns:sodipodi="http://sodipodi.sourceforge.net/DTD/sodipodi-0.dtd"
   xmlns="http://www.w3.org/2000/svg"
   xmlns:svg="http://www.w3.org/2000/svg">
  <sodipodi:namedview
     id="namedview6"
     pagecolor="#ffffff"
     bordercolor="#666666"
     borderopacity="1.0"
     inkscape:pageshadow="2"
     inkscape:pageopacity="0.0"
     inkscape:pagecheckerboard="0"
     inkscape:document-units="mm"
     showgrid="false"
     inkscape:zoom="21.168701"
     inkscape:cx="19.06116"
     inkscape:cy="19.1084"
     inkscape:window-width="1920"
     inkscape:window-height="1001"
     inkscape:window-x="-9"
     inkscape:window-y="-9"
     inkscape:window-maximized="1"
     inkscape:current-layer="layer1" />
  <defs
     id="defs2" />
  <g
     id="layer1"
     transform="translate(-81.007649,-148.91914)"
     style="fill:#999999">
    <path
       style="fill:#999999;stroke-width:0.0396014"
       d="m 85.400548,158.99404 c -0.868984,-0.11967 -1.766263,-0.49515 -2.457342,-1.02831 -0.312996,-0.24148 -0.84955,-0.81479 -1.074397,-1.14801 -0.593544,-0.87962 -0.862332,-1.76922 -0.861156,-2.85016 0.0016,-1.43219 0.466094,-2.55367 1.478427,-3.56923 0.746428,-0.7488 1.555096,-1.18348 2.617457,-1.40695 0.457108,-0.0961 1.428654,-0.0964 1.911756,-4.5e-4 1.0118,0.20089 1.850916,0.65418 2.607906,1.40877 0.998223,0.99505 1.477759,2.15284 1.477759,3.56789 0,1.07959 -0.241122,1.8876 -0.839049,2.8117 -0.266632,0.41208 -0.944252,1.0986 -1.356632,1.37443 -0.56535,0.37816 -1.232491,0.65799 -1.87547,0.78664 -0.364148,0.0729 -1.272668,0.10281 -1.629259,0.0537 z m 1.648169,-1.12005 c 1.42642,-0.36507 2.532233,-1.47067 2.916498,-2.91594 0.139387,-0.52425 0.147348,-1.39317 0.01753,-1.91348 -0.122811,-0.49223 -0.301297,-0.89759 -0.576135,-1.30848 -0.561678,-0.83972 -1.370817,-1.41589 -2.357894,-1.67901 -0.331008,-0.0882 -0.461355,-0.10154 -0.994745,-0.10154 -0.53173,0 -0.664198,0.0134 -0.990491,0.10046 -1.467894,0.39151 -2.57133,1.51394 -2.937984,2.98857 -0.123286,0.49584 -0.123286,1.35014 0,1.84598 0.12137,0.48813 0.300366,0.89665 0.56856,1.2976 0.644047,0.96286 1.637461,1.59606 2.78905,1.77773 0.392208,0.0619 1.135226,0.0183 1.56561,-0.0919 z m -1.41056,-1.08342 c -0.700469,-0.0969 -1.429664,-0.51964 -1.85929,-1.07797 -0.195857,-0.25453 -0.439863,-0.73249 -0.481472,-0.94311 l -0.02543,-0.1287 0.668274,7.4e-4 0.668275,7.5e-4 0.125537,0.19205 c 0.150698,0.23054 0.404414,0.44578 0.669647,0.5681 0.163437,0.0754 0.26203,0.0899 0.611501,0.0899 0.390832,0 0.433,-0.008 0.680545,-0.12991 0.512387,-0.25225 0.825322,-0.72813 0.855538,-1.301 0.03569,-0.6766 -0.280594,-1.20134 -0.901416,-1.49553 -0.233408,-0.11061 -0.296832,-0.12287 -0.635499,-0.12287 -0.327126,0 -0.406369,0.0141 -0.607324,0.10827 -0.315002,0.14757 -0.507427,0.30799 -0.678379,0.56554 l -0.144184,0.21722 h -0.66897 -0.668974 l 0.06108,-0.20791 c 0.147653,-0.50256 0.547338,-1.07506 0.978888,-1.40212 0.28531,-0.21623 0.694262,-0.41453 1.054637,-0.51139 0.342555,-0.0921 1.000186,-0.0935 1.346451,-0.003 1.09556,0.28641 1.888633,1.11582 2.115047,2.21197 0.232124,1.12378 -0.2574,2.28298 -1.235607,2.92595 -0.566929,0.37264 -1.270309,0.53424 -1.928879,0.44317 z"
       id="path1028" />
  </g>
</svg>
