<?xml version="1.0" encoding="UTF-8" standalone="no"?>
<svg
   width="97.548119mm"
   height="25.195778mm"
   viewBox="0 0 97.548108 25.195778"
   version="1.1"
   id="svg8"
   inkscape:version="1.1.2 (b8e25be833, 2022-02-05)"
   sodipodi:docname="logo.svg"
   xmlns:inkscape="http://www.inkscape.org/namespaces/inkscape"
   xmlns:sodipodi="http://sodipodi.sourceforge.net/DTD/sodipodi-0.dtd"
   xmlns="http://www.w3.org/2000/svg"
   xmlns:svg="http://www.w3.org/2000/svg"
   xmlns:rdf="http://www.w3.org/1999/02/22-rdf-syntax-ns#"
   xmlns:cc="http://creativecommons.org/ns#"
   xmlns:dc="http://purl.org/dc/elements/1.1/">
  <defs
     id="defs2">
    <rect
       x="505.98721"
       y="896.73242"
       width="181.42857"
       height="112.85714"
       id="rect483" />
    <rect
       x="243.13007"
       y="901.01813"
       width="261.42856"
       height="118.57143"
       id="rect477" />
    <rect
       x="199.55864"
       y="744.01813"
       width="548.57141"
       height="181.42857"
       id="rect463" />
    <linearGradient
       id="linearGradient5395">
      <stop
         id="stop5397"
         style="stop-color:#ffff00;stop-opacity:1"
         offset="0" />
    </linearGradient>
    <rect
       x="199.55864"
       y="744.01813"
       width="548.57141"
       height="181.42857"
       id="rect463-4" />
    <rect
       x="199.55864"
       y="744.01813"
       width="548.57141"
       height="181.42857"
       id="rect2032" />
    <rect
       x="199.55864"
       y="744.01813"
       width="548.57141"
       height="181.42857"
       id="rect2204" />
    <clipPath
       clipPathUnits="userSpaceOnUse"
       id="clipPath1530">
      <path
         d="M 0,980 H 1400 V 0 H 0 Z"
         id="path1528" />
    </clipPath>
    <rect
       x="199.55864"
       y="744.01813"
       width="548.57141"
       height="181.42857"
       id="rect5766" />
    <clipPath
       clipPathUnits="userSpaceOnUse"
       id="clipPath7590">
      <path
         d="M 0,980 H 1400 V 0 H 0 Z"
         id="path7588" />
    </clipPath>
  </defs>
  <sodipodi:namedview
     id="base"
     pagecolor="#ffffff"
     bordercolor="#666666"
     borderopacity="1.0"
     inkscape:pageopacity="0.0"
     inkscape:pageshadow="2"
     inkscape:zoom="0.98994949"
     inkscape:cx="421.73869"
     inkscape:cy="-86.368043"
     inkscape:document-units="mm"
     inkscape:current-layer="layer1"
     inkscape:document-rotation="0"
     showgrid="false"
     inkscape:window-width="1920"
     inkscape:window-height="1001"
     inkscape:window-x="-9"
     inkscape:window-y="-9"
     inkscape:window-maximized="1"
     inkscape:pagecheckerboard="0" />
  <metadata
     id="metadata5">
    <rdf:RDF>
      <cc:Work
         rdf:about="">
        <dc:format>image/svg+xml</dc:format>
        <dc:type
           rdf:resource="http://purl.org/dc/dcmitype/StillImage" />
      </cc:Work>
    </rdf:RDF>
  </metadata>
  <g
     inkscape:label="Layer 1"
     inkscape:groupmode="layer"
     id="layer1"
     transform="translate(-30.852865,-270.88425)">
    <g
       inkscape:label="Layer 1"
       id="layer1-9"
       transform="matrix(1.1191734,0,0,1.1191734,-41.904136,197.97287)">
      <g
         transform="matrix(0.17396011,0,0,0.17396011,41.253304,-46.554478)"
         id="layer1-3"
         style="display:inline" />
      <g
         inkscape:groupmode="layer"
         id="layer10"
         inkscape:label="Layer 2" />
      <g
         transform="matrix(0.1457112,0,0,0.1457112,132.29426,-74.037264)"
         id="layer1-5">
        <g
           transform="translate(16.428571,-4.1428571)"
           id="flowRoot3323"
           style="font-style:normal;font-variant:normal;font-weight:normal;font-stretch:normal;font-size:40px;line-height:125%;font-family:'Palatino Linotype';-inkscape-font-specification:'Palatino Linotype';letter-spacing:0px;word-spacing:0px;fill:#005400;fill-opacity:1;stroke:none">
          <text
             xml:space="preserve"
             style="font-style:normal;font-weight:normal;font-size:85.3333px;line-height:1.25;font-family:sans-serif;fill:#be5a0b;fill-opacity:1;stroke:none"
             x="-153.84879"
             y="1080.1012"
             id="text2140"><tspan
               sodipodi:role="line"
               x="-153.84879"
               y="1080.1012"
               style="font-style:normal;font-variant:normal;font-weight:normal;font-stretch:normal;font-size:85.3333px;font-family:'Palatino Linotype';-inkscape-font-specification:'Palatino Linotype';fill:#be5a0b;fill-opacity:1"
               id="tspan2138">P<tspan
   style="font-size:66.6362px;fill:#be5a0b;fill-opacity:1"
   id="tspan2136">LANTS</tspan></tspan></text>
          <text
             xml:space="preserve"
             style="font-style:normal;font-weight:normal;font-size:85.3333px;line-height:1.25;font-family:sans-serif;fill:#800101;fill-opacity:1;stroke:none"
             x="-155.00031"
             y="1078.9497"
             id="text469"><tspan
               sodipodi:role="line"
               x="-155.00031"
               y="1078.9497"
               style="font-style:normal;font-variant:normal;font-weight:normal;font-stretch:normal;font-size:85.3333px;font-family:'Palatino Linotype';-inkscape-font-specification:'Palatino Linotype';fill:#800101;fill-opacity:1"
               id="tspan499">P<tspan
   style="font-size:66.6362px"
   id="tspan2132">LANTS</tspan></tspan></text>
        </g>
        <g
           id="flowRoot3331"
           style="font-style:normal;font-variant:normal;font-weight:normal;font-stretch:normal;font-size:90px;line-height:125%;font-family:'Palatino Linotype';-inkscape-font-specification:'Palatino Linotype';letter-spacing:0px;word-spacing:0px;fill:#000000;fill-opacity:1;stroke:none" />
        <g
           id="text3339"
           style="font-style:normal;font-variant:normal;font-weight:normal;font-stretch:normal;font-size:90px;line-height:125%;font-family:'Palatino Linotype';-inkscape-font-specification:'Palatino Linotype';letter-spacing:0px;word-spacing:0px;fill:#000000;fill-opacity:1;stroke:none" />
        <g
           id="flowRoot3351"
           style="font-style:normal;font-variant:normal;font-weight:normal;font-stretch:normal;font-size:40px;line-height:125%;font-family:'Palatino Linotype';-inkscape-font-specification:'Palatino Linotype';letter-spacing:0px;word-spacing:0px;fill:#000000;fill-opacity:1;stroke:none" />
        <g
           id="flowRoot3375"
           style="font-style:normal;font-variant:normal;font-weight:normal;font-stretch:normal;font-size:20px;line-height:125%;font-family:'Palatino Linotype';-inkscape-font-specification:'Palatino Linotype';letter-spacing:0px;word-spacing:0px;fill:#000000;fill-opacity:1;stroke:none" />
        <text
           xml:space="preserve"
           id="text461"
           style="font-style:normal;font-weight:normal;font-size:40px;line-height:1.25;font-family:sans-serif;white-space:pre;shape-inside:url(#rect463-4);fill:#000000;fill-opacity:1;stroke:none" />
      </g>
      <g
         transform="matrix(0.13708859,0,0,0.13708859,97.823516,-13.862719)"
         id="g2202">
        <g
           transform="translate(16.428571,-4.1428571)"
           id="g2190"
           style="font-style:normal;font-variant:normal;font-weight:normal;font-stretch:normal;font-size:40px;line-height:125%;font-family:'Palatino Linotype';-inkscape-font-specification:'Palatino Linotype';letter-spacing:0px;word-spacing:0px;fill:#005400;fill-opacity:1;stroke:none">
          <text
             xml:space="preserve"
             style="font-style:normal;font-weight:normal;font-size:32.1873px;line-height:1.25;font-family:sans-serif;fill:#800101;fill-opacity:1;stroke:none;stroke-width:0.966061"
             x="-43.506313"
             y="744.20551"
             id="text2188"><tspan
               sodipodi:role="line"
               x="-43.506313"
               y="744.20551"
               style="font-style:italic;font-variant:normal;font-weight:normal;font-stretch:normal;font-size:32.1873px;font-family:'Palatino Linotype';-inkscape-font-specification:'Palatino Linotype Italic';fill:#800101;fill-opacity:1;stroke-width:0.966061"
               id="tspan2186">A Perma Farm</tspan></text>
        </g>
        <g
           id="g2192"
           style="font-style:normal;font-variant:normal;font-weight:normal;font-stretch:normal;font-size:90px;line-height:125%;font-family:'Palatino Linotype';-inkscape-font-specification:'Palatino Linotype';letter-spacing:0px;word-spacing:0px;fill:#000000;fill-opacity:1;stroke:none" />
        <g
           id="g2194"
           style="font-style:normal;font-variant:normal;font-weight:normal;font-stretch:normal;font-size:90px;line-height:125%;font-family:'Palatino Linotype';-inkscape-font-specification:'Palatino Linotype';letter-spacing:0px;word-spacing:0px;fill:#000000;fill-opacity:1;stroke:none" />
        <g
           id="g2196"
           style="font-style:normal;font-variant:normal;font-weight:normal;font-stretch:normal;font-size:40px;line-height:125%;font-family:'Palatino Linotype';-inkscape-font-specification:'Palatino Linotype';letter-spacing:0px;word-spacing:0px;fill:#000000;fill-opacity:1;stroke:none" />
        <g
           id="g2198"
           style="font-style:normal;font-variant:normal;font-weight:normal;font-stretch:normal;font-size:20px;line-height:125%;font-family:'Palatino Linotype';-inkscape-font-specification:'Palatino Linotype';letter-spacing:0px;word-spacing:0px;fill:#000000;fill-opacity:1;stroke:none" />
        <text
           xml:space="preserve"
           id="text2200"
           style="font-style:normal;font-weight:normal;font-size:40px;line-height:1.25;font-family:sans-serif;white-space:pre;shape-inside:url(#rect2204);fill:#000000;fill-opacity:1;stroke:none" />
      </g>
      <g
         transform="matrix(0.1457112,0,0,0.1457112,84.988546,-74.028032)"
         id="g5764">
        <g
           transform="translate(16.428571,-4.1428571)"
           id="g5752"
           style="font-style:normal;font-variant:normal;font-weight:normal;font-stretch:normal;font-size:40px;line-height:125%;font-family:'Palatino Linotype';-inkscape-font-specification:'Palatino Linotype';letter-spacing:0px;word-spacing:0px;fill:#005400;fill-opacity:1;stroke:none">
          <text
             xml:space="preserve"
             style="font-style:normal;font-weight:normal;font-size:85.3333px;line-height:1.25;font-family:sans-serif;fill:#be5a0b;fill-opacity:1;stroke:none"
             x="-153.84879"
             y="1080.1012"
             id="text5742"><tspan
               sodipodi:role="line"
               x="-153.84879"
               y="1080.1012"
               style="font-style:normal;font-variant:normal;font-weight:normal;font-stretch:normal;font-size:85.3333px;font-family:'Palatino Linotype';-inkscape-font-specification:'Palatino Linotype';fill:#be5a0b;fill-opacity:1"
               id="tspan5740">A<tspan
   style="font-size:66.6362px;fill:#be5a0b;fill-opacity:1"
   id="tspan5736">MITY</tspan></tspan></text>
          <text
             xml:space="preserve"
             style="font-style:normal;font-weight:normal;font-size:85.3333px;line-height:1.25;font-family:sans-serif;fill:#800101;fill-opacity:1;stroke:none"
             x="-155.00031"
             y="1078.9497"
             id="text5750"><tspan
               sodipodi:role="line"
               x="-155.00031"
               y="1078.9497"
               style="font-style:normal;font-variant:normal;font-weight:normal;font-stretch:normal;font-size:85.3333px;font-family:'Palatino Linotype';-inkscape-font-specification:'Palatino Linotype';fill:#800101;fill-opacity:1"
               id="tspan5748">A<tspan
   style="font-size:66.6362px"
   id="tspan5744">MITY</tspan> <tspan
   style="font-size:66.6362px"
   id="tspan5746" /></tspan></text>
        </g>
        <g
           id="g5754"
           style="font-style:normal;font-variant:normal;font-weight:normal;font-stretch:normal;font-size:90px;line-height:125%;font-family:'Palatino Linotype';-inkscape-font-specification:'Palatino Linotype';letter-spacing:0px;word-spacing:0px;fill:#000000;fill-opacity:1;stroke:none" />
        <g
           id="g5756"
           style="font-style:normal;font-variant:normal;font-weight:normal;font-stretch:normal;font-size:90px;line-height:125%;font-family:'Palatino Linotype';-inkscape-font-specification:'Palatino Linotype';letter-spacing:0px;word-spacing:0px;fill:#000000;fill-opacity:1;stroke:none" />
        <g
           id="g5758"
           style="font-style:normal;font-variant:normal;font-weight:normal;font-stretch:normal;font-size:40px;line-height:125%;font-family:'Palatino Linotype';-inkscape-font-specification:'Palatino Linotype';letter-spacing:0px;word-spacing:0px;fill:#000000;fill-opacity:1;stroke:none" />
        <g
           id="g5760"
           style="font-style:normal;font-variant:normal;font-weight:normal;font-stretch:normal;font-size:20px;line-height:125%;font-family:'Palatino Linotype';-inkscape-font-specification:'Palatino Linotype';letter-spacing:0px;word-spacing:0px;fill:#000000;fill-opacity:1;stroke:none" />
        <text
           xml:space="preserve"
           id="text5762"
           style="font-style:normal;font-weight:normal;font-size:40px;line-height:1.25;font-family:sans-serif;white-space:pre;shape-inside:url(#rect5766);fill:#000000;fill-opacity:1;stroke:none" />
      </g>
      <rect
         style="opacity:0.95098;fill:#808080;fill-opacity:1;stroke-width:0.195098"
         id="rect8657"
         width="28.12112"
         height="0.40144435"
         x="65.531395"
         y="86.148499" />
      <rect
         style="opacity:0.95098;fill:#4a8a3f;fill-opacity:1;stroke-width:0.195098"
         id="rect8653"
         width="28.12112"
         height="0.40144435"
         x="65.389153"
         y="85.965637" />
      <rect
         style="opacity:0.95098;fill:#808080;fill-opacity:1;stroke-width:0.2032"
         id="rect8659"
         width="30.505169"
         height="0.40144435"
         x="121.66528"
         y="86.282318" />
      <rect
         style="opacity:0.95098;fill:#4a8a3f;fill-opacity:1;stroke-width:0.2032"
         id="rect8655"
         width="30.505169"
         height="0.40144435"
         x="121.52304"
         y="86.099449" />
      <g
         id="g8651"
         transform="matrix(0.86010619,0,0,0.86010619,75.009408,10.200789)">
        <g
           id="g7720"
           transform="matrix(0.04730918,0,0,-0.04730918,41.832685,73.887032)">
          <path
             d="m 0,0 c -5.906,-4.789 -12.939,-8.347 -19.062,-12.952 -6.785,-5.104 -12.719,-11.211 -19.353,-16.477 -2.089,-1.659 -4.2,-3.335 -6.341,-4.993 5.783,-0.175 12.121,-1.951 17.083,-3.718 0.25,-0.089 0.136,-0.495 -0.112,-0.398 -6.195,2.429 -12.473,1.976 -18.792,2.715 -6.294,-4.807 -12.851,-9.394 -19.861,-12.978 -0.154,-0.274 -0.307,-0.55 -0.474,-0.816 -0.23,-0.369 -0.863,-0.307 -0.969,0.096 -2.673,-1.299 -5.407,-2.453 -8.223,-3.406 -0.317,-0.109 -0.476,0.347 -0.218,0.519 3.068,2.031 6.037,4.181 8.961,6.387 1.35,6.005 4.629,11.929 6.548,17.607 0.022,0.062 0.117,0.038 0.1,-0.029 -1.141,-4.763 -1.868,-10.224 -3.485,-15.15 4.511,3.502 8.941,7.096 13.413,10.642 1.238,4.686 4.584,9.207 6.484,13.364 0.03,0.066 0.141,0.02 0.118,-0.05 -1.094,-3.168 -1.751,-6.959 -2.926,-10.427 2.888,2.238 5.812,4.437 8.814,6.532 6.514,4.547 12.971,9.17 19.525,13.662 5.543,3.803 11.946,8.582 18.495,10.344 C -0.02,0.542 0.23,0.187 0,0 m -106.368,-139.514 c 0.822,4.521 3.414,8.909 6.454,12.969 -0.11,-0.053 -0.224,-0.1 -0.334,-0.15 -0.295,-0.141 -0.663,0.244 -0.374,0.486 0.764,0.635 1.538,1.213 2.324,1.746 2.034,2.537 4.155,4.923 6.02,7.101 6.153,7.19 13.316,13.397 20.029,20.037 0.618,0.61 1.556,-0.332 0.949,-0.949 -6.642,-6.759 -12.488,-14.24 -18.556,-21.509 -0.186,-0.222 -0.362,-0.457 -0.546,-0.683 3.296,1.291 7.262,2.634 9.673,5.195 0.158,0.167 0.467,-0.06 0.324,-0.25 -3.007,-4.029 -7.726,-6.233 -12.491,-8.148 -4.125,-5.519 -7.944,-11.49 -12.675,-16.31 -0.356,-0.364 -0.88,0.018 -0.797,0.465 m -62.004,-37.7 c -0.134,-0.381 -0.403,-0.565 -0.708,-0.832 -0.948,-0.832 -1.724,-1.525 -2.37,-2.645 -0.188,-0.323 -0.578,-0.359 -0.849,-0.196 -1.716,-2.777 -3.192,-5.678 -5.027,-8.396 -0.127,-0.192 -0.434,-0.018 -0.311,0.183 1.973,3.229 3.155,6.867 5.164,10.108 0.184,0.296 0.541,0.337 0.791,0.192 0.803,1.105 1.939,2.277 3.049,2.05 0.189,-0.04 0.327,-0.279 0.261,-0.464 m 3.594,61.286 c -0.129,0.127 -0.25,0.261 -0.379,0.388 -0.05,-0.642 -0.483,-1.245 -1.312,-1.245 -1.722,0 -1.76,2.599 -0.119,2.724 -3.709,3.997 -6.912,8.483 -10.76,12.371 -0.293,0.299 -0.609,0.578 -0.906,0.873 -12.305,-0.699 -24.433,-2.982 -36.597,-4.939 -0.324,-0.054 -0.465,0.438 -0.136,0.497 11.742,2.123 23.355,5.245 35.3,5.819 -4.813,4.599 -9.991,8.805 -15.5,12.543 -1.111,0.756 -2.243,1.51 -3.384,2.259 -11.125,-0.833 -21.795,-3.061 -32.895,-0.059 -0.146,0.037 -0.084,0.252 0.061,0.223 9.988,-2.08 20.245,0.398 30.347,1.457 -10.234,6.588 -21.469,12.818 -32.69,16.751 -0.5,0.177 -0.304,0.921 0.219,0.797 12.148,-2.891 23.349,-7.192 33.985,-13.235 -2.838,5.635 -4.546,12.312 -5.664,18.288 -0.041,0.215 0.268,0.383 0.378,0.159 3.09,-6.344 5.536,-13.313 7.909,-19.978 2.304,-1.385 4.585,-2.848 6.844,-4.405 5.266,-3.633 12.011,-8.255 17.394,-13.765 -0.162,1.055 -0.309,2.11 -0.524,3.117 -0.68,3.195 -1.425,6.391 -2.259,9.549 -0.054,0.209 0.252,0.348 0.354,0.151 1.522,-2.985 2.509,-6.063 3.261,-9.327 0.436,-1.878 1.073,-3.888 1.351,-5.873 3.761,-4.382 6.5,-9.273 6.957,-14.629 0.053,-0.656 -0.816,-0.922 -1.235,-0.511 m -3.739,2.153 c -5.688,-1.432 -11.941,-1.369 -17.773,-1.759 -0.136,-0.008 -0.152,0.192 -0.03,0.228 5.595,1.726 11.859,1.977 17.648,2.671 0.66,0.08 0.777,-0.983 0.155,-1.14 M -15.582,13.854 c -23.643,-6.438 -43.923,-25.403 -58.565,-44.234 -5.523,-7.107 -10.723,-15.031 -14.468,-23.44 -4.425,-3.865 -8.323,-8.393 -11.851,-13.058 -8.684,-11.476 -15.183,-24.594 -20.242,-38.025 -4.414,-11.708 -7.168,-23.936 -8.366,-36.361 -1.363,12.321 -6.74974,40.62098 -8.30474,52.917979 -13.92623,79.5988783 -28.86852,81.7903121 -5.98266,-9.739548 -0.335,-10.250001 3.4854,-25.510431 4.5314,-35.678431 0.403,-3.918 0.924,-7.844 1.581,-11.747 -4.338,6.337 -8.971,12.468 -13.681,18.354 -2.125,2.656 -4.477,5.062 -6.988,7.289 4.616,16.476 -6.926,33.48 -18.843,44.986 -14.466,13.974 -32.552,25.345 -52.081,30.437 -14.84,3.869 -40.199,4.832 -38.669,-17.175 0.759,-10.908 9.085,-21.133 15.319,-29.516 6.713,-9.026 12.381,-18.813 19.53,-27.503 9.675,-11.764 22.394,-19.682 37.699,-21.147 10.788,-1.03 30.916,0.666 34.608,13.202 0.055,-0.053 0.112,-0.103 0.168,-0.156 5.472,-5.247 9.745,-11.763 14.125,-17.913 3.178,-4.463 6.215,-9.024 9.111,-13.673 0.497,-5.73 2.202,-11.087 4.548,-16.32 0.413,-1.864 0.843,-3.725 1.301,-5.578 -3.353,3.143 -7.302,5.704 -11.773,7.448 -0.283,0.108 -0.569,0.203 -0.852,0.304 -0.633,0.502 -1.305,0.962 -1.998,1.398 -3.486,0.358 -6.933,0.437 -10.523,-0.433 -0.975,-0.236 -1.937,-0.509 -2.892,-0.799 -0.2,-0.188 -0.394,-0.381 -0.573,-0.595 -1.802,-2.132 -3.097,-4.667 -3.234,-7.483 -0.013,-0.28 -0.439,-0.284 -0.439,0 0,2.552 0.299,5.051 1.625,7.216 -3.383,-1.213 -6.645,-2.743 -9.766,-4.559 -9.233,-5.37 -18.983,-11.957 -26.712,-19.337 -0.215,-0.207 -0.536,0.112 -0.326,0.327 8.71,8.988 16.758,17.653 28.086,23.552 4.428,2.306 9.896,4.726 15.43,5.83 -8.272,1.897 -17.612,1.098 -24.039,-1.787 -11.29,-5.07 -23.069,-14.94 -29.737,-25.358 -2.291,-3.581 -3.647,-8.127 -0.644,-11.669 3.753,-4.431 12.51,-3.206 17.235,-1.759 8.418,2.578 15.561,8.882 22.431,14.112 7.791,5.93 24.262,18.348 33.624,11.551 4.989,-3.626 10.187,-41.292 10.02,-41.292 5.053,-0.011 10.01,-1.195 14.833,-3.197 -0.821,5.373 -2.045,10.67 -3.211,15.982 -6.786,22.68 -3.406,37.583 3.579,57.93 0.927,2.702 2.06,5.313 3.346,7.842 2.947,-2.394 6.691,-1.844 10.247,-1.251 10.345,1.726 17.818,7.22 24.057,15.472 5.435,7.187 10.102,17.3 10.888,26.373 0.379,4.378 0.855,12.172 -3.407,15.144 -8.545,5.954 -22.071,-9.53 -26.831,-14.714 -9.116,-9.927 -20.128,-23.846 -18.675,-38.265 -1.69,-2.756 -3.237,-5.596 -4.619,-8.494 -3.092,-6.486 -4.917,-13.513 -5.54,-20.649 -0.243,1.024 -0.467,2.048 -0.632,3.074 -1.013,6.297 -1.154,12.746 -0.98,19.108 0.265,9.666 1.735,19.325 3.945,28.782 5.913,19.437 15.872,37.669 28.649,53.797 0.767,0.003 1.549,0.41 1.897,1.34 0.185,0.493 0.398,0.977 0.591,1.469 13.636,1.404 27.211,4.906 40.176,9.185 12.328,4.069 25.358,9.191 35.826,17.022 11.93,8.921 24.334,22.838 28.27,37.497 5.146,19.176 -20.479,17.055 -31.832,13.964"
             style="fill:#4a8a3f;fill-opacity:1;fill-rule:nonzero;stroke:none"
             id="path7722"
             sodipodi:nodetypes="ccccsccccccccccccscccccccccccccccccccccccccccccccccscccccccccccccccccccccccccccccccccccccccscsccccccccccccccccscccsccccsccccscccccccccscccccccccccsccc" />
        </g>
        <g
           id="g2734"
           transform="matrix(0.0117828,-0.05326263,0.05326263,0.0117828,24.177971,48.276378)">
          <g
             id="g2732"
             transform="matrix(1.1643025,0,0,1.1643025,-468.93423,147.25348)">
            <g
               transform="translate(-184.2879,-456.07139)"
               id="g2478">
              <path
                 d="m 462.49999,548.9693 a 9.82143,9.82143 0 1 1 -19.64286,0 9.82143,9.82143 0 1 1 19.64286,0 z"
                 transform="matrix(1.0545455,0,0,1.0545455,-119.62558,29.834319)"
                 id="path2438"
                 style="fill:#bd5909;fill-opacity:1;stroke:none" />
              <path
                 d="m 462.49999,548.9693 a 9.82143,9.82143 0 1 1 -19.64286,0 9.82143,9.82143 0 1 1 19.64286,0 z"
                 transform="matrix(1.0545455,0,0,1.0545455,-139.62557,50.191459)"
                 id="path2440"
                 style="fill:#d79c08;fill-opacity:1;stroke:none" />
              <path
                 d="m 462.49999,548.9693 a 9.82143,9.82143 0 1 1 -19.64286,0 9.82143,9.82143 0 1 1 19.64286,0 z"
                 transform="matrix(1.0545455,0,0,1.0545455,-191.97763,67.186382)"
                 id="path2442"
                 style="fill:#ffff29;fill-opacity:1;stroke:none" />
              <path
                 d="m 462.49999,548.9693 a 9.82143,9.82143 0 1 1 -19.64286,0 9.82143,9.82143 0 1 1 19.64286,0 z"
                 transform="matrix(1.0545455,0,0,1.0545455,-244.79144,50.548599)"
                 id="path2444"
                 style="fill:#b7e60e;fill-opacity:1;stroke:none" />
              <path
                 d="m 462.49999,548.9693 a 9.82143,9.82143 0 1 1 -19.64286,0 9.82143,9.82143 0 1 1 19.64286,0 z"
                 transform="matrix(1.0545455,0,0,1.0545455,-264.81311,30.465664)"
                 id="path2446"
                 style="fill:#77c21f;fill-opacity:1;stroke:none" />
              <path
                 d="m 462.49999,548.9693 a 9.82143,9.82143 0 1 1 -19.64286,0 9.82143,9.82143 0 1 1 19.64286,0 z"
                 transform="matrix(1.0545455,0,0,1.0545455,-281.72509,-22.748627)"
                 id="path2448"
                 style="fill:#005000;fill-opacity:1;stroke:none" />
              <path
                 d="m 462.49999,548.9693 a 9.82143,9.82143 0 1 1 -19.64286,0 9.82143,9.82143 0 1 1 19.64286,0 z"
                 transform="matrix(1.0545455,0,0,1.0545455,-277.67025,-48.924659)"
                 id="path2450"
                 style="fill:#238e27;fill-opacity:1;stroke:none" />
              <path
                 d="m 462.49999,548.9693 a 9.82143,9.82143 0 1 1 -19.64286,0 9.82143,9.82143 0 1 1 19.64286,0 z"
                 transform="matrix(1.0545455,0,0,1.0545455,-264.18176,-75.353239)"
                 id="path2452"
                 style="fill:#77c21f;fill-opacity:1;stroke:none" />
              <path
                 d="m 462.49999,548.9693 a 9.82143,9.82143 0 1 1 -19.64286,0 9.82143,9.82143 0 1 1 19.64286,0 z"
                 transform="matrix(1.0545455,0,0,1.0545455,-243.74168,-95.331562)"
                 id="path2454"
                 style="fill:#b7e60e;fill-opacity:1;stroke:none" />
              <path
                 d="m 462.49999,548.9693 a 9.82143,9.82143 0 1 1 -19.64286,0 9.82143,9.82143 0 1 1 19.64286,0 z"
                 transform="matrix(1.0545455,0,0,1.0545455,-220.04398,-107.07394)"
                 id="path2456"
                 style="fill:#ffff00;fill-opacity:1;stroke:none" />
              <path
                 d="m 462.49999,548.9693 a 9.82143,9.82143 0 1 1 -19.64286,0 9.82143,9.82143 0 1 1 19.64286,0 z"
                 transform="matrix(1.0545455,0,0,1.0545455,-191.97763,-111.48457)"
                 id="path2458"
                 style="fill:#ffff00;fill-opacity:1;stroke:none" />
              <path
                 d="m 462.49999,548.9693 a 9.82143,9.82143 0 1 1 -19.64286,0 9.82143,9.82143 0 1 1 19.64286,0 z"
                 transform="matrix(1.0545455,0,0,1.0545455,-165.06565,-107.26521)"
                 id="path2460"
                 style="fill:#efd600;fill-opacity:1;stroke:none" />
              <path
                 d="m 462.49999,548.9693 a 9.82143,9.82143 0 1 1 -19.64286,0 9.82143,9.82143 0 1 1 19.64286,0 z"
                 transform="matrix(1.0545455,0,0,1.0545455,-140.19192,-94.638949)"
                 id="path2462"
                 style="fill:#d79c08;fill-opacity:1;stroke:none" />
              <path
                 d="m 462.49999,548.9693 a 9.82143,9.82143 0 1 1 -19.64286,0 9.82143,9.82143 0 1 1 19.64286,0 z"
                 transform="matrix(1.0545455,0,0,1.0545455,-107.20852,4.8776427)"
                 id="path2464"
                 style="fill:#a72110;fill-opacity:1;stroke:none" />
              <path
                 d="m 462.49999,548.9693 a 9.82143,9.82143 0 1 1 -19.64286,0 9.82143,9.82143 0 1 1 19.64286,0 z"
                 transform="matrix(1.0545455,0,0,1.0545455,-165.90621,63.488683)"
                 id="path2466"
                 style="fill:#efd600;fill-opacity:1;stroke:none" />
              <path
                 d="m 462.49999,548.9693 a 9.82143,9.82143 0 1 1 -19.64286,0 9.82143,9.82143 0 1 1 19.64286,0 z"
                 transform="matrix(1.0545455,0,0,1.0545455,-219.79144,63.27948)"
                 id="path2468"
                 style="fill:#e7f708;fill-opacity:1;stroke:none" />
              <path
                 d="m 462.49999,548.9693 a 9.82143,9.82143 0 1 1 -19.64286,0 9.82143,9.82143 0 1 1 19.64286,0 z"
                 transform="matrix(1.0545455,0,0,1.0545455,-277.56564,4.8776427)"
                 id="path2470"
                 style="fill:#238e27;fill-opacity:1;stroke:none" />
              <path
                 d="m 368.33792,564.67381 c -2.83613,-1.7293 -4.49979,-4.83227 -4.49629,-8.3863 0.008,-8.22042 9.86881,-12.70472 16.03394,-7.29166 4.7679,4.18627 4.76467,10.68608 -0.007,14.87599 -2.04428,1.79491 -3.1297,2.20113 -5.87551,2.19895 -2.0792,-0.002 -4.24305,-0.53622 -5.65476,-1.39698 v 0 z"
                 id="path2472"
                 style="fill:#800000;fill-opacity:1;stroke:none" />
              <path
                 d="m 365.0905,538.44037 c -6.85077,-3.66308 -6.85077,-13.67535 0,-17.33843 6.65617,-3.55903 14.29686,1.06023 14.29686,8.64332 0,3.83236 -1.64986,6.62861 -5.03292,8.53 -3.288,1.84796 -6.02539,1.89675 -9.26394,0.16511 z"
                 id="path2474"
                 style="fill:#a72110;fill-opacity:1;stroke:none" />
              <path
                 d="m 352.67345,513.92379 c -6.85077,-3.66308 -6.85077,-13.67535 0,-17.33844 6.65617,-3.55902 14.29686,1.06024 14.29686,8.64332 0,3.83237 -1.64986,6.62862 -5.03292,8.53001 -3.288,1.84796 -6.02539,1.89675 -9.26394,0.16511 z"
                 id="path2476"
                 style="fill:#bd5909;fill-opacity:1;stroke:none" />
            </g>
            <g
               transform="translate(-184.2879,-456.07139)"
               id="g2520">
              <path
                 d="m 462.49999,548.9693 a 9.82143,9.82143 0 1 1 -19.64286,0 9.82143,9.82143 0 1 1 19.64286,0 z"
                 transform="matrix(0.63679274,0.53631367,-0.53507331,0.63532001,307.98277,33.828693)"
                 id="path2480"
                 style="fill:#bd5909;fill-opacity:1;stroke:none" />
              <path
                 d="m 462.49999,548.9693 a 9.82143,9.82143 0 1 1 -19.64286,0 9.82143,9.82143 0 1 1 19.64286,0 z"
                 transform="matrix(0.63679274,0.53631367,-0.53507331,0.63532001,285.57651,35.921563)"
                 id="path2482"
                 style="fill:#d79c08;fill-opacity:1;stroke:none" />
              <path
                 d="m 462.49999,548.9693 a 9.82143,9.82143 0 1 1 -19.64286,0 9.82143,9.82143 0 1 1 19.64286,0 z"
                 transform="matrix(0.63679274,0.53631367,-0.53507331,0.63532001,245.34027,19.535447)"
                 id="path2484"
                 style="fill:#ffff29;fill-opacity:1;stroke:none" />
              <path
                 d="m 462.49999,548.9693 a 9.82143,9.82143 0 1 1 -19.64286,0 9.82143,9.82143 0 1 1 19.64286,0 z"
                 transform="matrix(0.63679274,0.53631367,-0.53507331,0.63532001,221.89034,-17.34781)"
                 id="path2486"
                 style="fill:#b7e60e;fill-opacity:1;stroke:none" />
              <path
                 d="m 462.49999,548.9693 a 9.82143,9.82143 0 1 1 -19.64286,0 9.82143,9.82143 0 1 1 19.64286,0 z"
                 transform="matrix(0.63679274,0.53631367,-0.53507331,0.63532001,219.9902,-39.629445)"
                 id="path2488"
                 style="fill:#77c21f;fill-opacity:1;stroke:none" />
              <path
                 d="m 462.49999,548.9693 a 9.82143,9.82143 0 1 1 -19.64286,0 9.82143,9.82143 0 1 1 19.64286,0 z"
                 transform="matrix(0.63679274,0.53631367,-0.53507331,0.63532001,236.77857,-80.289849)"
                 id="path2490"
                 style="fill:#005000;fill-opacity:1;stroke:none" />
              <path
                 d="m 462.49999,548.9693 a 9.82143,9.82143 0 1 1 -19.64286,0 9.82143,9.82143 0 1 1 19.64286,0 z"
                 transform="matrix(0.63679274,0.53631367,-0.53507331,0.63532001,252.50877,-93.997621)"
                 id="path2492"
                 style="fill:#238e27;fill-opacity:1;stroke:none" />
              <path
                 d="m 462.49999,548.9693 a 9.82143,9.82143 0 1 1 -19.64286,0 9.82143,9.82143 0 1 1 19.64286,0 z"
                 transform="matrix(0.63679274,0.53631367,-0.53507331,0.63532001,274.06362,-103.05988)"
                 id="path2494"
                 style="fill:#77c21f;fill-opacity:1;stroke:none" />
              <path
                 d="m 462.49999,548.9693 a 9.82143,9.82143 0 1 1 -19.64286,0 9.82143,9.82143 0 1 1 19.64286,0 z"
                 transform="matrix(0.63679274,0.53631367,-0.53507331,0.63532001,296.54343,-104.70069)"
                 id="path2496"
                 style="fill:#b7e60e;fill-opacity:1;stroke:none" />
              <path
                 d="m 462.49999,548.9693 a 9.82143,9.82143 0 1 1 -19.64286,0 9.82143,9.82143 0 1 1 19.64286,0 z"
                 transform="matrix(0.63679274,0.53631367,-0.53507331,0.63532001,317.56906,-99.849246)"
                 id="path2498"
                 style="fill:#ffff00;fill-opacity:1;stroke:none" />
              <path
                 d="m 462.49999,548.9693 a 9.82143,9.82143 0 1 1 -19.64286,0 9.82143,9.82143 0 1 1 19.64286,0 z"
                 transform="matrix(0.63679274,0.53631367,-0.53507331,0.63532001,335.9974,-88.820692)"
                 id="path2500"
                 style="fill:#ffff00;fill-opacity:1;stroke:none" />
              <path
                 d="m 462.49999,548.9693 a 9.82143,9.82143 0 1 1 -19.64286,0 9.82143,9.82143 0 1 1 19.64286,0 z"
                 transform="matrix(0.63679274,0.53631367,-0.53507331,0.63532001,350.10744,-71.877706)"
                 id="path2502"
                 style="fill:#efd600;fill-opacity:1;stroke:none" />
              <path
                 d="m 462.49999,548.9693 a 9.82143,9.82143 0 1 1 -19.64286,0 9.82143,9.82143 0 1 1 19.64286,0 z"
                 transform="matrix(0.63679274,0.53631367,-0.53507331,0.63532001,358.72105,-51.620791)"
                 id="path2504"
                 style="fill:#d79c08;fill-opacity:1;stroke:none" />
              <path
                 d="m 462.49999,548.9693 a 9.82143,9.82143 0 1 1 -19.64286,0 9.82143,9.82143 0 1 1 19.64286,0 z"
                 transform="matrix(0.63679274,0.53631367,-0.53507331,0.63532001,328.14382,25.108309)"
                 id="path2506"
                 style="fill:#a72110;fill-opacity:1;stroke:none" />
              <path
                 d="m 462.49999,548.9693 a 9.82143,9.82143 0 1 1 -19.64286,0 9.82143,9.82143 0 1 1 19.64286,0 z"
                 transform="matrix(0.63679274,0.53631367,-0.53507331,0.63532001,262.95984,30.56695)"
                 id="path2508"
                 style="fill:#efd600;fill-opacity:1;stroke:none" />
              <path
                 d="m 462.49999,548.9693 a 9.82143,9.82143 0 1 1 -19.64286,0 9.82143,9.82143 0 1 1 19.64286,0 z"
                 transform="matrix(0.63679274,0.53631367,-0.53507331,0.63532001,230.52712,3.0363404)"
                 id="path2510"
                 style="fill:#e7f708;fill-opacity:1;stroke:none" />
              <path
                 d="m 462.49999,548.9693 a 9.82143,9.82143 0 1 1 -19.64286,0 9.82143,9.82143 0 1 1 19.64286,0 z"
                 transform="matrix(0.63679274,0.53631367,-0.53507331,0.63532001,225.27279,-61.530777)"
                 id="path2512"
                 style="fill:#238e27;fill-opacity:1;stroke:none" />
              <path
                 d="m 331.8974,604.33881 c -0.83518,-2.48422 -0.26535,-5.19972 1.54008,-7.33909 4.17562,-4.94857 12.40565,-2.63506 13.38194,3.76149 0.75503,4.9469 -2.54493,8.86113 -7.55266,8.95828 -2.14519,0.0417 -3.00672,-0.26558 -4.6637,-1.66334 -1.25424,-1.05896 -2.29011,-2.48096 -2.70584,-3.71749 v 0 z"
                 id="path2514"
                 style="fill:#800000;fill-opacity:1;stroke:none" />
              <path
                 d="m 342.99464,586.75643 c -2.27823,-5.69097 2.80198,-11.72295 8.79748,-10.4457 5.82521,1.24098 8.09528,7.90975 4.24764,12.47825 -1.94453,2.30883 -4.35962,3.15439 -7.36725,2.57936 -2.92311,-0.55887 -4.60087,-1.92164 -5.67787,-4.61191 z"
                 id="path2516"
                 style="fill:#a72110;fill-opacity:1;stroke:none" />
              <path
                 d="m 347.80991,565.41866 c -2.27823,-5.69095 2.80197,-11.72293 8.79748,-10.44568 5.8252,1.24098 8.09529,7.90976 4.24765,12.47825 -1.94454,2.30884 -4.35963,3.1544 -7.36727,2.57937 -2.92311,-0.55887 -4.60085,-1.92165 -5.67786,-4.61194 z"
                 id="path2518"
                 style="fill:#bd5909;fill-opacity:1;stroke:none" />
            </g>
            <g
               transform="translate(-184.2879,-456.07139)"
               id="g2562">
              <path
                 d="m 462.49999,548.9693 a 9.82143,9.82143 0 1 1 -19.64286,0 9.82143,9.82143 0 1 1 19.64286,0 z"
                 transform="matrix(0.06162035,0.66274424,-0.66121149,0.06147784,592.57879,272.61237)"
                 id="path2522"
                 style="fill:#bd5909;fill-opacity:1;stroke:none" />
              <path
                 d="m 462.49999,548.9693 a 9.82143,9.82143 0 1 1 -19.64286,0 9.82143,9.82143 0 1 1 19.64286,0 z"
                 transform="matrix(0.06162035,0.66274424,-0.66121149,0.06147784,578.64598,261.22984)"
                 id="path2524"
                 style="fill:#d79c08;fill-opacity:1;stroke:none" />
              <path
                 d="m 462.49999,548.9693 a 9.82143,9.82143 0 1 1 -19.64286,0 9.82143,9.82143 0 1 1 19.64286,0 z"
                 transform="matrix(0.06162035,0.66274424,-0.66121149,0.06147784,564.9309,229.31921)"
                 id="path2526"
                 style="fill:#ffff29;fill-opacity:1;stroke:none" />
              <path
                 d="m 462.49999,548.9693 a 9.82143,9.82143 0 1 1 -19.64286,0 9.82143,9.82143 0 1 1 19.64286,0 z"
                 transform="matrix(0.06162035,0.66274424,-0.66121149,0.06147784,572.27688,195.15768)"
                 id="path2528"
                 style="fill:#b7e60e;fill-opacity:1;stroke:none" />
              <path
                 d="m 462.49999,548.9693 a 9.82143,9.82143 0 1 1 -19.64286,0 9.82143,9.82143 0 1 1 19.64286,0 z"
                 transform="matrix(0.06162035,0.66274424,-0.66121149,0.06147784,583.69919,181.40398)"
                 id="path2530"
                 style="fill:#77c21f;fill-opacity:1;stroke:none" />
              <path
                 d="m 462.49999,548.9693 a 9.82143,9.82143 0 1 1 -19.64286,0 9.82143,9.82143 0 1 1 19.64286,0 z"
                 transform="matrix(0.06162035,0.66274424,-0.66121149,0.06147784,616.0769,167.67311)"
                 id="path2532"
                 style="fill:#005000;fill-opacity:1;stroke:none" />
              <path
                 d="m 462.49999,548.9693 a 9.82143,9.82143 0 1 1 -19.64286,0 9.82143,9.82143 0 1 1 19.64286,0 z"
                 transform="matrix(0.06162035,0.66274424,-0.66121149,0.06147784,632.7265,168.69545)"
                 id="path2534"
                 style="fill:#238e27;fill-opacity:1;stroke:none" />
              <path
                 d="m 462.49999,548.9693 a 9.82143,9.82143 0 1 1 -19.64286,0 9.82143,9.82143 0 1 1 19.64286,0 z"
                 transform="matrix(0.06162035,0.66274424,-0.66121149,0.06147784,650.08567,175.63171)"
                 id="path2536"
                 style="fill:#77c21f;fill-opacity:1;stroke:none" />
              <path
                 d="m 462.49999,548.9693 a 9.82143,9.82143 0 1 1 -19.64286,0 9.82143,9.82143 0 1 1 19.64286,0 z"
                 transform="matrix(0.06162035,0.66274424,-0.66121149,0.06147784,663.80668,187.31291)"
                 id="path2538"
                 style="fill:#b7e60e;fill-opacity:1;stroke:none" />
              <path
                 d="m 462.49999,548.9693 a 9.82143,9.82143 0 1 1 -19.64286,0 9.82143,9.82143 0 1 1 19.64286,0 z"
                 transform="matrix(0.06162035,0.66274424,-0.66121149,0.06147784,673.05626,201.87477)"
                 id="path2540"
                 style="fill:#ffff00;fill-opacity:1;stroke:none" />
              <path
                 d="m 462.49999,548.9693 a 9.82143,9.82143 0 1 1 -19.64286,0 9.82143,9.82143 0 1 1 19.64286,0 z"
                 transform="matrix(0.06162035,0.66274424,-0.66121149,0.06147784,677.36037,218.49635)"
                 id="path2542"
                 style="fill:#ffff00;fill-opacity:1;stroke:none" />
              <path
                 d="m 462.49999,548.9693 a 9.82143,9.82143 0 1 1 -19.64286,0 9.82143,9.82143 0 1 1 19.64286,0 z"
                 transform="matrix(0.06162035,0.66274424,-0.66121149,0.06147784,675.88649,236.06226)"
                 id="path2544"
                 style="fill:#efd600;fill-opacity:1;stroke:none" />
              <path
                 d="m 462.49999,548.9693 a 9.82143,9.82143 0 1 1 -19.64286,0 9.82143,9.82143 0 1 1 19.64286,0 z"
                 transform="matrix(0.06162035,0.66274424,-0.66121149,0.06147784,669.42314,252.4306)"
                 id="path2546"
                 style="fill:#d79c08;fill-opacity:1;stroke:none" />
              <path
                 d="m 462.49999,548.9693 a 9.82143,9.82143 0 1 1 -19.64286,0 9.82143,9.82143 0 1 1 19.64286,0 z"
                 transform="matrix(0.06162035,0.66274424,-0.66121149,0.06147784,608.95247,278.96112)"
                 id="path2548"
                 style="fill:#a72110;fill-opacity:1;stroke:none" />
              <path
                 d="m 462.49999,548.9693 a 9.82143,9.82143 0 1 1 -19.64286,0 9.82143,9.82143 0 1 1 19.64286,0 z"
                 transform="matrix(0.06162035,0.66274424,-0.66121149,0.06147784,568.77282,245.4886)"
                 id="path2550"
                 style="fill:#efd600;fill-opacity:1;stroke:none" />
              <path
                 d="m 462.49999,548.9693 a 9.82143,9.82143 0 1 1 -19.64286,0 9.82143,9.82143 0 1 1 19.64286,0 z"
                 transform="matrix(0.06162035,0.66274424,-0.66121149,0.06147784,565.75531,211.61148)"
                 id="path2552"
                 style="fill:#e7f708;fill-opacity:1;stroke:none" />
              <path
                 d="m 462.49999,548.9693 a 9.82143,9.82143 0 1 1 -19.64286,0 9.82143,9.82143 0 1 1 19.64286,0 z"
                 transform="matrix(0.06162035,0.66274424,-0.66121149,0.06147784,598.99799,171.89772)"
                 id="path2554"
                 style="fill:#238e27;fill-opacity:1;stroke:none" />
              <path
                 d="m 286.03046,610.88627 c 0.91857,-1.88323 2.76696,-3.10967 4.99559,-3.31466 5.15472,-0.47442 8.54265,5.46153 5.50887,9.65167 -2.34623,3.24052 -6.4219,3.61739 -9.32786,0.86241 -1.24496,-1.18005 -1.56302,-1.83855 -1.72211,-3.56435 -0.11988,-1.30683 0.0883,-2.69787 0.5455,-3.63526 v 0 z"
                 id="path2556"
                 style="fill:#800000;fill-opacity:1;stroke:none" />
              <path
                 d="m 302.21643,607.1024 c 1.89647,-4.51901 8.17428,-5.1027 10.87139,-1.0108 2.6205,3.97569 0.17063,9.04689 -4.58405,9.48895 -2.40293,0.22342 -4.25262,-0.65044 -5.64249,-2.66572 -1.3508,-1.95866 -1.54137,-3.67617 -0.64485,-5.81243 z"
                 id="path2558"
                 style="fill:#a72110;fill-opacity:1;stroke:none" />
              <path
                 d="m 316.93285,597.65478 c 1.89647,-4.519 8.17428,-5.1027 10.87139,-1.01078 2.62049,3.97567 0.17064,9.04689 -4.58405,9.48896 -2.40294,0.22341 -4.25262,-0.65045 -5.64249,-2.66573 -1.35081,-1.95865 -1.54135,-3.67615 -0.64485,-5.81245 z"
                 id="path2560"
                 style="fill:#bd5909;fill-opacity:1;stroke:none" />
            </g>
            <g
               transform="translate(-184.2879,-456.07139)"
               id="g2604">
              <path
                 d="m 462.49999,548.9693 a 9.82143,9.82143 0 1 1 -19.64286,0 9.82143,9.82143 0 1 1 19.64286,0 z"
                 transform="matrix(-0.36013536,0.38667396,-0.38267673,-0.35421226,615.05575,586.45664)"
                 id="path2564"
                 style="fill:#bd5909;fill-opacity:1;stroke:none" />
              <path
                 d="m 462.49999,548.9693 a 9.82143,9.82143 0 1 1 -19.64286,0 9.82143,9.82143 0 1 1 19.64286,0 z"
                 transform="matrix(-0.36013536,0.38667396,-0.38267673,-0.35421226,614.49865,572.28537)"
                 id="path2566"
                 style="fill:#d79c08;fill-opacity:1;stroke:none" />
              <path
                 d="m 462.49999,548.9693 a 9.82143,9.82143 0 1 1 -19.64286,0 9.82143,9.82143 0 1 1 19.64286,0 z"
                 transform="matrix(-0.36013536,0.38667396,-0.38267673,-0.35421226,626.21012,547.38083)"
                 id="path2568"
                 style="fill:#ffff29;fill-opacity:1;stroke:none" />
              <path
                 d="m 462.49999,548.9693 a 9.82143,9.82143 0 1 1 -19.64286,0 9.82143,9.82143 0 1 1 19.64286,0 z"
                 transform="matrix(-0.36013536,0.38667396,-0.38267673,-0.35421226,650.28398,533.60388)"
                 id="path2570"
                 style="fill:#b7e60e;fill-opacity:1;stroke:none" />
              <path
                 d="m 462.49999,548.9693 a 9.82143,9.82143 0 1 1 -19.64286,0 9.82143,9.82143 0 1 1 19.64286,0 z"
                 transform="matrix(-0.36013536,0.38667396,-0.38267673,-0.35421226,664.40931,533.00815)"
                 id="path2572"
                 style="fill:#77c21f;fill-opacity:1;stroke:none" />
              <path
                 d="m 462.49999,548.9693 a 9.82143,9.82143 0 1 1 -19.64286,0 9.82143,9.82143 0 1 1 19.64286,0 z"
                 transform="matrix(-0.36013536,0.38667396,-0.38267673,-0.35421226,689.49546,544.68116)"
                 id="path2574"
                 style="fill:#005000;fill-opacity:1;stroke:none" />
              <path
                 d="m 462.49999,548.9693 a 9.82143,9.82143 0 1 1 -19.64286,0 9.82143,9.82143 0 1 1 19.64286,0 z"
                 transform="matrix(-0.36013536,0.38667396,-0.38267673,-0.35421226,697.60951,554.96026)"
                 id="path2576"
                 style="fill:#238e27;fill-opacity:1;stroke:none" />
              <path
                 d="m 462.49999,548.9693 a 9.82143,9.82143 0 1 1 -19.64286,0 9.82143,9.82143 0 1 1 19.64286,0 z"
                 transform="matrix(-0.36013536,0.38667396,-0.38267673,-0.35421226,702.59359,568.78324)"
                 id="path2578"
                 style="fill:#77c21f;fill-opacity:1;stroke:none" />
              <path
                 d="m 462.49999,548.9693 a 9.82143,9.82143 0 1 1 -19.64286,0 9.82143,9.82143 0 1 1 19.64286,0 z"
                 transform="matrix(-0.36013536,0.38667396,-0.38267673,-0.35421226,702.86294,582.98863)"
                 id="path2580"
                 style="fill:#b7e60e;fill-opacity:1;stroke:none" />
              <path
                 d="m 462.49999,548.9693 a 9.82143,9.82143 0 1 1 -19.64286,0 9.82143,9.82143 0 1 1 19.64286,0 z"
                 transform="matrix(-0.36013536,0.38667396,-0.38267673,-0.35421226,699.08498,596.10277)"
                 id="path2582"
                 style="fill:#ffff00;fill-opacity:1;stroke:none" />
              <path
                 d="m 462.49999,548.9693 a 9.82143,9.82143 0 1 1 -19.64286,0 9.82143,9.82143 0 1 1 19.64286,0 z"
                 transform="matrix(-0.36013536,0.38667396,-0.38267673,-0.35421226,691.49752,607.41404)"
                 id="path2584"
                 style="fill:#ffff00;fill-opacity:1;stroke:none" />
              <path
                 d="m 462.49999,548.9693 a 9.82143,9.82143 0 1 1 -19.64286,0 9.82143,9.82143 0 1 1 19.64286,0 z"
                 transform="matrix(-0.36013536,0.38667396,-0.38267673,-0.35421226,680.325,615.84545)"
                 id="path2586"
                 style="fill:#efd600;fill-opacity:1;stroke:none" />
              <path
                 d="m 462.49999,548.9693 a 9.82143,9.82143 0 1 1 -19.64286,0 9.82143,9.82143 0 1 1 19.64286,0 z"
                 transform="matrix(-0.36013536,0.38667396,-0.38267673,-0.35421226,667.24858,620.72493)"
                 id="path2588"
                 style="fill:#d79c08;fill-opacity:1;stroke:none" />
              <path
                 d="m 462.49999,548.9693 a 9.82143,9.82143 0 1 1 -19.64286,0 9.82143,9.82143 0 1 1 19.64286,0 z"
                 transform="matrix(-0.36013536,0.38667396,-0.38267673,-0.35421226,619.87158,599.39236)"
                 id="path2590"
                 style="fill:#a72110;fill-opacity:1;stroke:none" />
              <path
                 d="m 462.49999,548.9693 a 9.82143,9.82143 0 1 1 -19.64286,0 9.82143,9.82143 0 1 1 19.64286,0 z"
                 transform="matrix(-0.36013536,0.38667396,-0.38267673,-0.35421226,618.64835,558.18254)"
                 id="path2592"
                 style="fill:#efd600;fill-opacity:1;stroke:none" />
              <path
                 d="m 462.49999,548.9693 a 9.82143,9.82143 0 1 1 -19.64286,0 9.82143,9.82143 0 1 1 19.64286,0 z"
                 transform="matrix(-0.36013536,0.38667396,-0.38267673,-0.35421226,637.12648,538.49453)"
                 id="path2594"
                 style="fill:#e7f708;fill-opacity:1;stroke:none" />
              <path
                 d="m 462.49999,548.9693 a 9.82143,9.82143 0 1 1 -19.64286,0 9.82143,9.82143 0 1 1 19.64286,0 z"
                 transform="matrix(-0.36013536,0.38667396,-0.38267673,-0.35421226,678.04986,536.92691)"
                 id="path2596"
                 style="fill:#238e27;fill-opacity:1;stroke:none" />
              <path
                 d="m 254.22708,586.12651 c 1.5961,-0.45907 3.29026,-0.0269 4.57875,1.16823 2.98045,2.76396 1.24008,7.88603 -2.82967,8.32842 -3.14739,0.34216 -5.50498,-1.84229 -5.39563,-4.99951 0.0468,-1.35249 0.27005,-1.88692 1.20856,-2.89302 0.71103,-0.76144 1.64361,-1.37573 2.43808,-1.60422 v 0 z"
                 id="path2598"
                 style="fill:#800000;fill-opacity:1;stroke:none" />
              <path
                 d="m 264.94407,593.59169 c 3.66885,-1.28161 7.30213,2.08142 6.29182,5.82381 -0.98162,3.6361 -5.26724,4.88616 -8.01899,2.33905 -1.3907,-1.28725 -1.84197,-2.83143 -1.37663,-4.71056 0.4523,-1.82634 1.36943,-2.84646 3.1038,-3.4523 z"
                 id="path2600"
                 style="fill:#a72110;fill-opacity:1;stroke:none" />
              <path
                 d="m 278.24492,597.20083 c 3.66883,-1.28161 7.30213,2.08144 6.29182,5.82383 -0.98163,3.63608 -5.26724,4.88619 -8.01901,2.33909 -1.39071,-1.28728 -1.84198,-2.83147 -1.37662,-4.71062 0.45229,-1.82632 1.3694,-2.84642 3.10381,-3.4523 z"
                 id="path2602"
                 style="fill:#bd5909;fill-opacity:1;stroke:none" />
            </g>
            <g
               transform="translate(-184.2879,-456.07139)"
               id="g2646">
              <path
                 d="m 462.49999,548.9693 a 9.82143,9.82143 0 1 1 -19.64286,0 9.82143,9.82143 0 1 1 19.64286,0 z"
                 transform="matrix(-0.41973733,0.02710521,-0.02801948,-0.41424139,460.73386,754.65573)"
                 id="path2606"
                 style="fill:#bd5909;fill-opacity:1;stroke:none" />
              <path
                 d="m 462.49999,548.9693 a 9.82143,9.82143 0 1 1 -19.64286,0 9.82143,9.82143 0 1 1 19.64286,0 z"
                 transform="matrix(-0.41973733,0.02710521,-0.02801948,-0.41424139,468.15354,746.14507)"
                 id="path2608"
                 style="fill:#d79c08;fill-opacity:1;stroke:none" />
              <path
                 d="m 462.49999,548.9693 a 9.82143,9.82143 0 1 1 -19.64286,0 9.82143,9.82143 0 1 1 19.64286,0 z"
                 transform="matrix(-0.41973733,0.02710521,-0.02801948,-0.41424139,488.53949,738.12361)"
                 id="path2610"
                 style="fill:#ffff29;fill-opacity:1;stroke:none" />
              <path
                 d="m 462.49999,548.9693 a 9.82143,9.82143 0 1 1 -19.64286,0 9.82143,9.82143 0 1 1 19.64286,0 z"
                 transform="matrix(-0.41973733,0.02710521,-0.02801948,-0.41424139,510.00285,743.30166)"
                 id="path2612"
                 style="fill:#b7e60e;fill-opacity:1;stroke:none" />
              <path
                 d="m 462.49999,548.9693 a 9.82143,9.82143 0 1 1 -19.64286,0 9.82143,9.82143 0 1 1 19.64286,0 z"
                 transform="matrix(-0.41973733,0.02710521,-0.02801948,-0.41424139,518.50564,750.67595)"
                 id="path2614"
                 style="fill:#77c21f;fill-opacity:1;stroke:none" />
              <path
                 d="m 462.49999,548.9693 a 9.82143,9.82143 0 1 1 -19.64286,0 9.82143,9.82143 0 1 1 19.64286,0 z"
                 transform="matrix(-0.41973733,0.02710521,-0.02801948,-0.41424139,526.65097,771.14464)"
                 id="path2616"
                 style="fill:#005000;fill-opacity:1;stroke:none" />
              <path
                 d="m 462.49999,548.9693 a 9.82143,9.82143 0 1 1 -19.64286,0 9.82143,9.82143 0 1 1 19.64286,0 z"
                 transform="matrix(-0.41973733,0.02710521,-0.02801948,-0.41424139,525.73251,781.53118)"
                 id="path2618"
                 style="fill:#238e27;fill-opacity:1;stroke:none" />
              <path
                 d="m 462.49999,548.9693 a 9.82143,9.82143 0 1 1 -19.64286,0 9.82143,9.82143 0 1 1 19.64286,0 z"
                 transform="matrix(-0.41973733,0.02710521,-0.02801948,-0.41424139,521.06596,792.25943)"
                 id="path2620"
                 style="fill:#77c21f;fill-opacity:1;stroke:none" />
              <path
                 d="m 462.49999,548.9693 a 9.82143,9.82143 0 1 1 -19.64286,0 9.82143,9.82143 0 1 1 19.64286,0 z"
                 transform="matrix(-0.41973733,0.02710521,-0.02801948,-0.41424139,513.46109,800.6326)"
                 id="path2622"
                 style="fill:#b7e60e;fill-opacity:1;stroke:none" />
              <path
                 d="m 462.49999,548.9693 a 9.82143,9.82143 0 1 1 -19.64286,0 9.82143,9.82143 0 1 1 19.64286,0 z"
                 transform="matrix(-0.41973733,0.02710521,-0.02801948,-0.41424139,504.10937,806.16207)"
                 id="path2624"
                 style="fill:#ffff00;fill-opacity:1;stroke:none" />
              <path
                 d="m 462.49999,548.9693 a 9.82143,9.82143 0 1 1 -19.64286,0 9.82143,9.82143 0 1 1 19.64286,0 z"
                 transform="matrix(-0.41973733,0.02710521,-0.02801948,-0.41424139,493.53722,808.56572)"
                 id="path2626"
                 style="fill:#ffff00;fill-opacity:1;stroke:none" />
              <path
                 d="m 462.49999,548.9693 a 9.82143,9.82143 0 1 1 -19.64286,0 9.82143,9.82143 0 1 1 19.64286,0 z"
                 transform="matrix(-0.41973733,0.02710521,-0.02801948,-0.41424139,482.46301,807.34255)"
                 id="path2628"
                 style="fill:#efd600;fill-opacity:1;stroke:none" />
              <path
                 d="m 462.49999,548.9693 a 9.82143,9.82143 0 1 1 -19.64286,0 9.82143,9.82143 0 1 1 19.64286,0 z"
                 transform="matrix(-0.41973733,0.02710521,-0.02801948,-0.41424139,472.22712,803.02211)"
                 id="path2630"
                 style="fill:#d79c08;fill-opacity:1;stroke:none" />
              <path
                 d="m 462.49999,548.9693 a 9.82143,9.82143 0 1 1 -19.64286,0 9.82143,9.82143 0 1 1 19.64286,0 z"
                 transform="matrix(-0.41973733,0.02710521,-0.02801948,-0.41424139,456.45466,764.77825)"
                 id="path2632"
                 style="fill:#a72110;fill-opacity:1;stroke:none" />
              <path
                 d="m 462.49999,548.9693 a 9.82143,9.82143 0 1 1 -19.64286,0 9.82143,9.82143 0 1 1 19.64286,0 z"
                 transform="matrix(-0.41973733,0.02710521,-0.02801948,-0.41424139,478.26062,740.24621)"
                 id="path2634"
                 style="fill:#efd600;fill-opacity:1;stroke:none" />
              <path
                 d="m 462.49999,548.9693 a 9.82143,9.82143 0 1 1 -19.64286,0 9.82143,9.82143 0 1 1 19.64286,0 z"
                 transform="matrix(-0.41973733,0.02710521,-0.02801948,-0.41424139,499.71391,738.94337)"
                 id="path2636"
                 style="fill:#e7f708;fill-opacity:1;stroke:none" />
              <path
                 d="m 462.49999,548.9693 a 9.82143,9.82143 0 1 1 -19.64286,0 9.82143,9.82143 0 1 1 19.64286,0 z"
                 transform="matrix(-0.41973733,0.02710521,-0.02801948,-0.41424139,524.26136,760.39951)"
                 id="path2638"
                 style="fill:#238e27;fill-opacity:1;stroke:none" />
              <path
                 d="m 252.02657,557.27796 c 1.17478,0.60641 1.91949,1.78247 2.01243,3.17869 0.21539,3.22931 -3.59046,5.24429 -6.18818,3.27643 -2.00898,-1.52188 -2.18039,-4.07521 -0.3922,-5.84372 0.76599,-0.7576 1.1872,-0.94508 2.28018,-1.01482 0.82762,-0.0524 1.70312,0.10161 2.28786,0.40341 v 0 z"
                 id="path2640"
                 style="fill:#800000;fill-opacity:1;stroke:none" />
              <path
                 d="m 254.1523,567.4575 c 2.82414,1.26283 3.09016,5.19579 0.4607,6.81079 -2.55479,1.56914 -5.71871,-0.0491 -5.92018,-3.02776 -0.10188,-1.5054 0.48056,-2.64622 1.77657,-3.48006 1.25963,-0.81041 2.34788,-0.89995 3.68291,-0.30297 z"
                 id="path2642"
                 style="fill:#a72110;fill-opacity:1;stroke:none" />
              <path
                 d="m 259.88053,576.81614 c 2.82412,1.26282 3.09013,5.1958 0.46067,6.8108 -2.55475,1.56913 -5.71872,-0.0489 -5.92019,-3.02773 -0.10188,-1.50545 0.48057,-2.64626 1.7766,-3.48011 1.25961,-0.81041 2.34785,-0.89993 3.68292,-0.30296 z"
                 id="path2644"
                 style="fill:#bd5909;fill-opacity:1;stroke:none" />
            </g>
            <g
               transform="translate(-184.2879,-456.07139)"
               id="g2688">
              <path
                 d="m 462.49999,548.9693 a 9.82143,9.82143 0 1 1 -19.64286,0 9.82143,9.82143 0 1 1 19.64286,0 z"
                 transform="matrix(-0.2431957,-0.22204585,0.21844929,-0.24072726,269.78806,763.65582)"
                 id="path2648"
                 style="fill:#bd5909;fill-opacity:1;stroke:none" />
              <path
                 d="m 462.49999,548.9693 a 9.82143,9.82143 0 1 1 -19.64286,0 9.82143,9.82143 0 1 1 19.64286,0 z"
                 transform="matrix(-0.2431957,-0.22204585,0.21844929,-0.24072726,278.6174,763.22)"
                 id="path2650"
                 style="fill:#d79c08;fill-opacity:1;stroke:none" />
              <path
                 d="m 462.49999,548.9693 a 9.82143,9.82143 0 1 1 -19.64286,0 9.82143,9.82143 0 1 1 19.64286,0 z"
                 transform="matrix(-0.2431957,-0.22204585,0.21844929,-0.24072726,294.21114,770.36376)"
                 id="path2652"
                 style="fill:#ffff29;fill-opacity:1;stroke:none" />
              <path
                 d="m 462.49999,548.9693 a 9.82143,9.82143 0 1 1 -19.64286,0 9.82143,9.82143 0 1 1 19.64286,0 z"
                 transform="matrix(-0.2431957,-0.22204585,0.21844929,-0.24072726,302.94438,785.28225)"
                 id="path2654"
                 style="fill:#b7e60e;fill-opacity:1;stroke:none" />
              <path
                 d="m 462.49999,548.9693 a 9.82143,9.82143 0 1 1 -19.64286,0 9.82143,9.82143 0 1 1 19.64286,0 z"
                 transform="matrix(-0.2431957,-0.22204585,0.21844929,-0.24072726,303.40152,794.08251)"
                 id="path2656"
                 style="fill:#77c21f;fill-opacity:1;stroke:none" />
              <path
                 d="m 462.49999,548.9693 a 9.82143,9.82143 0 1 1 -19.64286,0 9.82143,9.82143 0 1 1 19.64286,0 z"
                 transform="matrix(-0.2431957,-0.22204585,0.21844929,-0.24072726,296.27834,809.79105)"
                 id="path2658"
                 style="fill:#005000;fill-opacity:1;stroke:none" />
              <path
                 d="m 462.49999,548.9693 a 9.82143,9.82143 0 1 1 -19.64286,0 9.82143,9.82143 0 1 1 19.64286,0 z"
                 transform="matrix(-0.2431957,-0.22204585,0.21844929,-0.24072726,289.92086,814.91257)"
                 id="path2660"
                 style="fill:#238e27;fill-opacity:1;stroke:none" />
              <path
                 d="m 462.49999,548.9693 a 9.82143,9.82143 0 1 1 -19.64286,0 9.82143,9.82143 0 1 1 19.64286,0 z"
                 transform="matrix(-0.2431957,-0.22204585,0.21844929,-0.24072726,281.33552,818.10545)"
                 id="path2662"
                 style="fill:#77c21f;fill-opacity:1;stroke:none" />
              <path
                 d="m 462.49999,548.9693 a 9.82143,9.82143 0 1 1 -19.64286,0 9.82143,9.82143 0 1 1 19.64286,0 z"
                 transform="matrix(-0.2431957,-0.22204585,0.21844929,-0.24072726,272.48317,818.36215)"
                 id="path2664"
                 style="fill:#b7e60e;fill-opacity:1;stroke:none" />
              <path
                 d="m 462.49999,548.9693 a 9.82143,9.82143 0 1 1 -19.64286,0 9.82143,9.82143 0 1 1 19.64286,0 z"
                 transform="matrix(-0.2431957,-0.22204585,0.21844929,-0.24072726,264.2864,816.08944)"
                 id="path2666"
                 style="fill:#ffff00;fill-opacity:1;stroke:none" />
              <path
                 d="m 462.49999,548.9693 a 9.82143,9.82143 0 1 1 -19.64286,0 9.82143,9.82143 0 1 1 19.64286,0 z"
                 transform="matrix(-0.2431957,-0.22204585,0.21844929,-0.24072726,257.19015,811.43107)"
                 id="path2668"
                 style="fill:#ffff00;fill-opacity:1;stroke:none" />
              <path
                 d="m 462.49999,548.9693 a 9.82143,9.82143 0 1 1 -19.64286,0 9.82143,9.82143 0 1 1 19.64286,0 z"
                 transform="matrix(-0.2431957,-0.22204585,0.21844929,-0.24072726,251.8671,804.52024)"
                 id="path2670"
                 style="fill:#efd600;fill-opacity:1;stroke:none" />
              <path
                 d="m 462.49999,548.9693 a 9.82143,9.82143 0 1 1 -19.64286,0 9.82143,9.82143 0 1 1 19.64286,0 z"
                 transform="matrix(-0.2431957,-0.22204585,0.21844929,-0.24072726,248.74634,796.40055)"
                 id="path2672"
                 style="fill:#d79c08;fill-opacity:1;stroke:none" />
              <path
                 d="m 462.49999,548.9693 a 9.82143,9.82143 0 1 1 -19.64286,0 9.82143,9.82143 0 1 1 19.64286,0 z"
                 transform="matrix(-0.2431957,-0.22204585,0.21844929,-0.24072726,261.75471,766.73829)"
                 id="path2674"
                 style="fill:#a72110;fill-opacity:1;stroke:none" />
              <path
                 d="m 462.49999,548.9693 a 9.82143,9.82143 0 1 1 -19.64286,0 9.82143,9.82143 0 1 1 19.64286,0 z"
                 transform="matrix(-0.2431957,-0.22204585,0.21844929,-0.24072726,287.43268,765.71823)"
                 id="path2676"
                 style="fill:#efd600;fill-opacity:1;stroke:none" />
              <path
                 d="m 462.49999,548.9693 a 9.82143,9.82143 0 1 1 -19.64286,0 9.82143,9.82143 0 1 1 19.64286,0 z"
                 transform="matrix(-0.2431957,-0.22204585,0.21844929,-0.24072726,299.81615,777.11209)"
                 id="path2678"
                 style="fill:#e7f708;fill-opacity:1;stroke:none" />
              <path
                 d="m 462.49999,548.9693 a 9.82143,9.82143 0 1 1 -19.64286,0 9.82143,9.82143 0 1 1 19.64286,0 z"
                 transform="matrix(-0.2431957,-0.22204585,0.21844929,-0.24072726,301.0419,802.60882)"
                 id="path2680"
                 style="fill:#238e27;fill-opacity:1;stroke:none" />
              <path
                 d="m 267.80131,538.75835 c 0.29583,0.99193 0.0368,2.05057 -0.7003,2.86111 -1.70464,1.87495 -4.90772,0.82223 -5.20818,-1.71158 -0.23237,-1.95956 1.11483,-3.44263 3.08334,-3.39421 0.84325,0.0207 1.17771,0.1565 1.81051,0.73518 0.47896,0.43834 0.86739,1.01588 1.0147,1.50955 v 0 z"
                 id="path2682"
                 style="fill:#800000;fill-opacity:1;stroke:none" />
              <path
                 d="m 263.21351,545.48466 c 0.8211,2.27869 -1.25295,4.56423 -3.59165,3.95794 -2.27229,-0.5891 -3.07742,-3.25244 -1.50661,-4.98342 0.79381,-0.87489 1.7536,-1.16575 2.92764,-0.88747 1.14107,0.27049 1.78247,0.83574 2.17062,1.91295 z"
                 id="path2684"
                 style="fill:#a72110;fill-opacity:1;stroke:none" />
              <path
                 d="m 261.0448,553.79729 c 0.82111,2.27869 -1.25293,4.56424 -3.59166,3.95795 -2.27225,-0.58909 -3.0775,-3.25238 -1.50663,-4.98342 0.79384,-0.87492 1.75362,-1.16576 2.92769,-0.88747 1.14106,0.27048 1.78244,0.83571 2.1706,1.91294 z"
                 id="path2686"
                 style="fill:#bd5909;fill-opacity:1;stroke:none" />
            </g>
            <g
               transform="translate(-184.2879,-456.07139)"
               id="g2730">
              <path
                 d="m 462.49999,548.9693 a 9.82143,9.82143 0 1 1 -19.64286,0 9.82143,9.82143 0 1 1 19.64286,0 z"
                 transform="matrix(-0.01823218,-0.25026899,0.24698578,-0.0187506,169.25401,663.14742)"
                 id="path2690"
                 style="fill:#bd5909;fill-opacity:1;stroke:none" />
              <path
                 d="m 462.49999,548.9693 a 9.82143,9.82143 0 1 1 -19.64286,0 9.82143,9.82143 0 1 1 19.64286,0 z"
                 transform="matrix(-0.01823218,-0.25026899,0.24698578,-0.0187506,174.36766,667.53194)"
                 id="path2692"
                 style="fill:#d79c08;fill-opacity:1;stroke:none" />
              <path
                 d="m 462.49999,548.9693 a 9.82143,9.82143 0 1 1 -19.64286,0 9.82143,9.82143 0 1 1 19.64286,0 z"
                 transform="matrix(-0.01823218,-0.25026899,0.24698578,-0.0187506,179.25316,679.65415)"
                 id="path2694"
                 style="fill:#ffff29;fill-opacity:1;stroke:none" />
              <path
                 d="m 462.49999,548.9693 a 9.82143,9.82143 0 1 1 -19.64286,0 9.82143,9.82143 0 1 1 19.64286,0 z"
                 transform="matrix(-0.01823218,-0.25026899,0.24698578,-0.0187506,176.26954,692.48397)"
                 id="path2696"
                 style="fill:#b7e60e;fill-opacity:1;stroke:none" />
              <path
                 d="m 462.49999,548.9693 a 9.82143,9.82143 0 1 1 -19.64286,0 9.82143,9.82143 0 1 1 19.64286,0 z"
                 transform="matrix(-0.01823218,-0.25026899,0.24698578,-0.0187506,171.91204,697.59271)"
                 id="path2698"
                 style="fill:#77c21f;fill-opacity:1;stroke:none" />
              <path
                 d="m 462.49999,548.9693 a 9.82143,9.82143 0 1 1 -19.64286,0 9.82143,9.82143 0 1 1 19.64286,0 z"
                 transform="matrix(-0.01823218,-0.25026899,0.24698578,-0.0187506,159.74108,702.55251)"
                 id="path2700"
                 style="fill:#005000;fill-opacity:1;stroke:none" />
              <path
                 d="m 462.49999,548.9693 a 9.82143,9.82143 0 1 1 -19.64286,0 9.82143,9.82143 0 1 1 19.64286,0 z"
                 transform="matrix(-0.01823218,-0.25026899,0.24698578,-0.0187506,153.54029,702.0556)"
                 id="path2702"
                 style="fill:#238e27;fill-opacity:1;stroke:none" />
              <path
                 d="m 462.49999,548.9693 a 9.82143,9.82143 0 1 1 -19.64286,0 9.82143,9.82143 0 1 1 19.64286,0 z"
                 transform="matrix(-0.01823218,-0.25026899,0.24698578,-0.0187506,147.11723,699.32439)"
                 id="path2704"
                 style="fill:#77c21f;fill-opacity:1;stroke:none" />
              <path
                 d="m 462.49999,548.9693 a 9.82143,9.82143 0 1 1 -19.64286,0 9.82143,9.82143 0 1 1 19.64286,0 z"
                 transform="matrix(-0.01823218,-0.25026899,0.24698578,-0.0187506,142.08469,694.8287)"
                 id="path2706"
                 style="fill:#b7e60e;fill-opacity:1;stroke:none" />
              <path
                 d="m 462.49999,548.9693 a 9.82143,9.82143 0 1 1 -19.64286,0 9.82143,9.82143 0 1 1 19.64286,0 z"
                 transform="matrix(-0.01823218,-0.25026899,0.24698578,-0.0187506,138.74004,689.27692)"
                 id="path2708"
                 style="fill:#ffff00;fill-opacity:1;stroke:none" />
              <path
                 d="m 462.49999,548.9693 a 9.82143,9.82143 0 1 1 -19.64286,0 9.82143,9.82143 0 1 1 19.64286,0 z"
                 transform="matrix(-0.01823218,-0.25026899,0.24698578,-0.0187506,137.25414,682.98171)"
                 id="path2710"
                 style="fill:#ffff00;fill-opacity:1;stroke:none" />
              <path
                 d="m 462.49999,548.9693 a 9.82143,9.82143 0 1 1 -19.64286,0 9.82143,9.82143 0 1 1 19.64286,0 z"
                 transform="matrix(-0.01823218,-0.25026899,0.24698578,-0.0187506,137.92946,676.36918)"
                 id="path2712"
                 style="fill:#efd600;fill-opacity:1;stroke:none" />
              <path
                 d="m 462.49999,548.9693 a 9.82143,9.82143 0 1 1 -19.64286,0 9.82143,9.82143 0 1 1 19.64286,0 z"
                 transform="matrix(-0.01823218,-0.25026899,0.24698578,-0.0187506,140.4566,670.24155)"
                 id="path2714"
                 style="fill:#d79c08;fill-opacity:1;stroke:none" />
              <path
                 d="m 462.49999,548.9693 a 9.82143,9.82143 0 1 1 -19.64286,0 9.82143,9.82143 0 1 1 19.64286,0 z"
                 transform="matrix(-0.01823218,-0.25026899,0.24698578,-0.0187506,163.1942,660.64431)"
                 id="path2716"
                 style="fill:#a72110;fill-opacity:1;stroke:none" />
              <path
                 d="m 462.49999,548.9693 a 9.82143,9.82143 0 1 1 -19.64286,0 9.82143,9.82143 0 1 1 19.64286,0 z"
                 transform="matrix(-0.01823218,-0.25026899,0.24698578,-0.0187506,177.93638,673.53254)"
                 id="path2718"
                 style="fill:#efd600;fill-opacity:1;stroke:none" />
              <path
                 d="m 462.49999,548.9693 a 9.82143,9.82143 0 1 1 -19.64286,0 9.82143,9.82143 0 1 1 19.64286,0 z"
                 transform="matrix(-0.01823218,-0.25026899,0.24698578,-0.0187506,178.81901,686.3245)"
                 id="path2720"
                 style="fill:#e7f708;fill-opacity:1;stroke:none" />
              <path
                 d="m 462.49999,548.9693 a 9.82143,9.82143 0 1 1 -19.64286,0 9.82143,9.82143 0 1 1 19.64286,0 z"
                 transform="matrix(-0.01823218,-0.25026899,0.24698578,-0.0187506,166.13953,701.07415)"
                 id="path2722"
                 style="fill:#238e27;fill-opacity:1;stroke:none" />
              <path
                 d="m 285.97808,537.66951 c -0.35599,0.70382 -1.05391,1.15389 -1.88642,1.21618 -1.92547,0.14437 -3.14624,-2.1162 -1.98502,-3.67558 0.89804,-1.20598 2.42043,-1.32078 3.48424,-0.26268 0.45571,0.45326 0.56965,0.70358 0.61662,1.3553 0.0354,0.49346 -0.0523,1.01652 -0.22941,1.36685 v 0 z"
                 id="path2724"
                 style="fill:#800000;fill-opacity:1;stroke:none" />
              <path
                 d="m 279.91571,538.98768 c -0.73948,1.69097 -3.08445,1.86899 -4.06083,0.30829 -0.94864,-1.5164 0.001,-3.41186 1.77718,-3.54666 0.89757,-0.0682 1.58101,0.27369 2.08482,1.04274 0.48966,0.74746 0.54842,1.39625 0.19883,2.19563 z"
                 id="path2726"
                 style="fill:#a72110;fill-opacity:1;stroke:none" />
              <path
                 d="m 274.36078,542.45092 c -0.73947,1.69099 -3.08444,1.86901 -4.06084,0.30828 -0.94863,-1.51637 0.001,-3.41185 1.77718,-3.54667 0.8976,-0.0682 1.58102,0.2737 2.08484,1.04278 0.48965,0.74745 0.54841,1.39621 0.19882,2.19561 z"
                 id="path2728"
                 style="fill:#bd5909;fill-opacity:1;stroke:none" />
            </g>
          </g>
        </g>
      </g>
    </g>
  </g>
</svg>
